# xmcd
#
# Track frame offsets:
#  150
#  14702
#  25152
#  40888
#  52987
#  65212
#  75013
#  88004
#  99067
#  110888
#  121518
#
# Disc length: 1815 seconds
#
# Revision: 0
# Processed by: cddbd v1.5.1PL0 Copyright (c) Steve Scherf et al.
# Submitted via: Collectorz.com Music Collector 6.9
#
DISCID=7f07150b
DTITLE=Wagoner, Porter - The Best Of Porter Wagoner
DYEAR=1900
DGENRE=Country
TTITLE0=The Cold Hard Facts Of Life
TTITLE1=Big Wind
TTITLE2=Little Boy's Payer
TTITLE3=I Couldn't Wait Forever
TTITLE4=Men With Broken Hearts
TTITLE5=Ole Slew-Foot
TTITLE6=The Carroll County Accident
TTITLE7=You Got-ta Have A License
TTITLE8=When You're Hot You're Hot
TTITLE9=Banks Of The Ohio
TTITLE10=Pastor's Absent On Vacation
EXTD=
EXTT0=
EXTT1=
EXTT2=
EXTT3=
EXTT4=
EXTT5=
EXTT6=
EXTT7=
EXTT8=
EXTT9=
EXTT10=
PLAYORDER=
